{
  "accessors": [
    {
      "bufferView": 2,
      "componentType": 5126,
      "count": 65532,
      "max": [
        357.01611328125,
        523.117431640625,
        370.41610717773438
      ],
      "min": [
        -293.32318115234375,
        -474.72531127929688,
        -317.7781982421875
      ],
      "type": "VEC3"
    },
    {
      "bufferView": 2,
      "byteOffset": 786384,
      "componentType": 5126,
      "count": 65532,
      "max": [
        0.99999040365219116,
        0.99999982118606567,
        0.99997502565383911
      ],
      "min": [
        -0.99999648332595825,
        -0.99997943639755249,
        -0.99995213747024536
      ],
      "type": "VEC3"
    },
    {
      "bufferView": 1,
      "componentType": 5126,
      "count": 65532,
      "max": [
        0.99954438209533691,
        0.99967586994171143
      ],
      "min": [
        0.00023527981829829514,
        0.00094026327133178711
      ],
      "type": "VEC2"
    },
    {
      "bufferView": 0,
      "componentType": 5125,
      "count": 318558,
      "max": [
        65531
      ],
      "min": [
        0
      ],
      "type": "SCALAR"
    },
    {
      "bufferView": 2,
      "byteOffset": 1572768,
      "componentType": 5126,
      "count": 65532,
      "max": [
        359.6314697265625,
        514.27227783203125,
        371.14071655273438
      ],
      "min": [
        -293.80908203125,
        -475.50991821289062,
        -333.44110107421875
      ],
      "type": "VEC3"
    },
    {
      "bufferView": 2,
      "byteOffset": 2359152,
      "componentType": 5126,
      "count": 65532,
      "max": [
        0.99998080730438232,
        0.9999995231628418,
        0.99998182058334351
      ],
      "min": [
        -0.99990499019622803,
        -0.99981808662414551,
        -0.99997824430465698
      ],
      "type": "VEC3"
    },
    {
      "bufferView": 1,
      "byteOffset": 524256,
      "componentType": 5126,
      "count": 65532,
      "max": [
        0.99932360649108887,
        0.99974185228347778
      ],
      "min": [
        0.00022142476518638432,
        0.0042651891708374023
      ],
      "type": "VEC2"
    },
    {
      "bufferView": 0,
      "byteOffset": 1274232,
      "componentType": 5125,
      "count": 283836,
      "max": [
        65531
      ],
      "min": [
        0
      ],
      "type": "SCALAR"
    },
    {
      "bufferView": 2,
      "byteOffset": 3145536,
      "componentType": 5126,
      "count": 33644,
      "max": [
        360.49252319335938,
        524.49005126953125,
        370.41610717773438
      ],
      "min": [
        -293.80908203125,
        -475.50991821289062,
        -336.375732421875
      ],
      "type": "VEC3"
    },
    {
      "bufferView": 2,
      "byteOffset": 3549264,
      "componentType": 5126,
      "count": 33644,
      "max": [
        0.99989748001098633,
        0.9999995231628418,
        0.99996393918991089
      ],
      "min": [
        -0.99989616870880127,
        -0.99981808662414551,
        -0.99992740154266357
      ],
      "type": "VEC3"
    },
    {
      "bufferView": 1,
      "byteOffset": 1048512,
      "componentType": 5126,
      "count": 33644,
      "max": [
        0.99952679872512817,
        0.99977380037307739
      ],
      "min": [
        0.00024719239445403218,
        0.0037069916725158691
      ],
      "type": "VEC2"
    },
    {
      "bufferView": 0,
      "byteOffset": 2409576,
      "componentType": 5125,
      "count": 78141,
      "max": [
        33643
      ],
      "min": [
        0
      ],
      "type": "SCALAR"
    }
  ],
  "asset": {
    "extras": {
      "author": "RealMichalo (https://sketchfab.com/RealMichalo)",
      "license": "CC-BY-4.0 (http://creativecommons.org/licenses/by/4.0/)",
      "source": "https://sketchfab.com/3d-models/angel-statue-6eca16ad16594837838260b7f898341f",
      "title": "Angel statue"
    },
    "generator": "Sketchfab-10.14.1",
    "version": "2.0"
  },
  "bufferViews": [
    {
      "buffer": 0,
      "byteLength": 2722140,
      "byteOffset": 0,
      "name": "floatBufferViews",
      "target": 34963
    },
    {
      "buffer": 0,
      "byteLength": 1317664,
      "byteOffset": 2722140,
      "byteStride": 8,
      "name": "floatBufferViews",
      "target": 34962
    },
    {
      "buffer": 0,
      "byteLength": 3952992,
      "byteOffset": 4039804,
      "byteStride": 12,
      "name": "floatBufferViews",
      "target": 34962
    }
  ],
  "buffers": [
    {
      "byteLength": 7992796,
      "uri": "scene.bin"
    }
  ],
  "extensionsUsed": [
    "KHR_materials_unlit"
  ],
  "images": [
    {
      "uri": "textures/Material0_baseColor.jpeg"
    }
  ],
  "materials": [
    {
      "doubleSided": true,
      "emissiveFactor": [
        0,
        0,
        0
      ],
      "extensions": {
        "KHR_materials_unlit": {}
      },
      "name": "Material0",
      "pbrMetallicRoughness": {
        "baseColorFactor": [
          1,
          1,
          1,
          1
        ],
        "baseColorTexture": {
          "index": 0,
          "texCoord": 0
        },
        "metallicFactor": 0,
        "roughnessFactor": 1
      }
    }
  ],
  "meshes": [
    {
      "name": "Stereo textured mesh_Material0_0",
      "primitives": [
        {
          "attributes": {
            "NORMAL": 1,
            "POSITION": 0,
            "TEXCOORD_0": 2
          },
          "indices": 3,
          "material": 0,
          "mode": 4
        }
      ]
    },
    {
      "name": "Stereo textured mesh_Material0_0",
      "primitives": [
        {
          "attributes": {
            "NORMAL": 5,
            "POSITION": 4,
            "TEXCOORD_0": 6
          },
          "indices": 7,
          "material": 0,
          "mode": 4
        }
      ]
    },
    {
      "name": "Stereo textured mesh_Material0_0",
      "primitives": [
        {
          "attributes": {
            "NORMAL": 9,
            "POSITION": 8,
            "TEXCOORD_0": 10
          },
          "indices": 11,
          "material": 0,
          "mode": 4
        }
      ]
    }
  ],
  "nodes": [
    {
      "children": [
        1
      ],
      "name": "RootNode (gltf orientation matrix)",
      "rotation": [
        -0.70710678118654746,
        -0,
        -0,
        0.70710678118654757
      ]
    },
    {
      "children": [
        2
      ],
      "name": "RootNode (model correction matrix)"
    },
    {
      "children": [
        3
      ],
      "matrix": [
        1,
        0,
        0,
        0,
        0,
        -1,
        0,
        0,
        0,
        0,
        -1,
        0,
        0,
        0,
        0,
        1
      ],
      "name": "sketchfabTemp.obj.fbx"
    },
    {
      "children": [
        4
      ],
      "name": "RootNode"
    },
    {
      "children": [
        5,
        6,
        7
      ],
      "name": "Stereo textured mesh"
    },
    {
      "mesh": 0,
      "name": "Stereo textured mesh_Material0_0"
    },
    {
      "mesh": 1,
      "name": "Stereo textured mesh_Material0_0"
    },
    {
      "mesh": 2,
      "name": "Stereo textured mesh_Material0_0"
    }
  ],
  "samplers": [
    {
      "magFilter": 9729,
      "minFilter": 9987,
      "wrapS": 10497,
      "wrapT": 10497
    }
  ],
  "scene": 0,
  "scenes": [
    {
      "name": "OSG_Scene",
      "nodes": [
        0
      ]
    }
  ],
  "textures": [
    {
      "sampler": 0,
      "source": 0
    }
  ]
}

